<svg width="512" height="512" fill="none" xmlns="http://www.w3.org/2000/svg"><path d="M363.976 253.602c0 59.657-48.629 108.108-108.725 108.108s-108.725-48.451-108.725-108.108c0-59.657 48.629-108.108 108.725-108.108s108.725 48.451 108.725 108.108z" stroke="#fff" stroke-width="20"/><path d="M363.976 127.101c0 60.036-48.677 108.707-108.725 108.707-60.049 0-108.725-48.671-108.725-108.707 0-60.036 48.676-108.708 108.725-108.708 60.048 0 108.725 48.672 108.725 108.708z" stroke="#fff" stroke-width="20"/><path d="M482.701 188.852c0 59.705-48.408 108.108-108.125 108.108-59.718 0-108.126-48.403-108.126-108.108 0-59.704 48.408-108.107 108.126-108.107 59.717 0 108.125 48.403 108.125 108.107z" stroke="#fff" stroke-width="20"/><path d="M482.701 330.342c0 59.705-48.408 108.108-108.125 108.108-59.718 0-108.126-48.403-108.126-108.108 0-59.705 48.408-108.108 108.126-108.108 59.717 0 108.125 48.403 108.125 108.108z" stroke="#fff" stroke-width="20"/><path d="M363.976 393.892c0 59.657-48.629 108.108-108.725 108.108s-108.725-48.451-108.725-108.108c0-59.657 48.629-108.107 108.725-108.107s108.725 48.45 108.725 108.107z" stroke="#fff" stroke-width="20"/><path d="M246.45 330.342c0 59.657-48.629 108.108-108.725 108.108S29 389.999 29 330.342c0-59.657 48.629-108.108 108.725-108.108S246.45 270.685 246.45 330.342z" stroke="#fff" stroke-width="20"/><path d="M246.45 188.852c0 59.658-48.629 108.108-108.725 108.108S29 248.51 29 188.852c0-59.657 48.629-108.107 108.725-108.107s108.725 48.45 108.725 108.107z" stroke="#fff" stroke-width="20"/></svg>