<svg width="512" height="512" viewBox="0 0 512 512" fill="none" xmlns="http://www.w3.org/2000/svg">
<path d="M363.976 253.602C363.976 313.259 315.347 361.71 255.251 361.71C195.155 361.71 146.526 313.259 146.526 253.602C146.526 193.945 195.155 145.494 255.251 145.494C315.347 145.494 363.976 193.945 363.976 253.602Z" stroke="black" stroke-width="20"/>
<path d="M363.976 127.101C363.976 187.137 315.299 235.808 255.251 235.808C195.202 235.808 146.526 187.137 146.526 127.101C146.526 67.0647 195.202 18.3934 255.251 18.3934C315.299 18.3934 363.976 67.0647 363.976 127.101Z" stroke="black" stroke-width="20"/>
<path d="M482.701 188.852C482.701 248.557 434.293 296.96 374.576 296.96C314.858 296.96 266.45 248.557 266.45 188.852C266.45 129.148 314.858 80.7448 374.576 80.7448C434.293 80.7448 482.701 129.148 482.701 188.852Z" stroke="black" stroke-width="20"/>
<path d="M482.701 330.342C482.701 390.047 434.293 438.45 374.576 438.45C314.858 438.45 266.45 390.047 266.45 330.342C266.45 270.637 314.858 222.234 374.576 222.234C434.293 222.234 482.701 270.637 482.701 330.342Z" stroke="black" stroke-width="20"/>
<path d="M363.976 393.892C363.976 453.549 315.347 502 255.251 502C195.155 502 146.526 453.549 146.526 393.892C146.526 334.235 195.155 285.785 255.251 285.785C315.347 285.785 363.976 334.235 363.976 393.892Z" stroke="black" stroke-width="20"/>
<path d="M246.45 330.342C246.45 389.999 197.821 438.45 137.725 438.45C77.6286 438.45 29 389.999 29 330.342C29 270.685 77.6286 222.234 137.725 222.234C197.821 222.234 246.45 270.685 246.45 330.342Z" stroke="black" stroke-width="20"/>
<path d="M246.45 188.852C246.45 248.51 197.821 296.96 137.725 296.96C77.6286 296.96 29 248.51 29 188.852C29 129.195 77.6286 80.7448 137.725 80.7448C197.821 80.7448 246.45 129.195 246.45 188.852Z" stroke="black" stroke-width="20"/>
</svg>
