<svg width="2084" height="512" fill="none" xmlns="http://www.w3.org/2000/svg"><g clip-path="url(#a)"><path d="M363.976 253.602c0 59.657-48.629 108.108-108.725 108.108s-108.725-48.451-108.725-108.108c0-59.657 48.629-108.108 108.725-108.108s108.725 48.451 108.725 108.108z" stroke="#fff" stroke-width="20"/><path d="M363.976 127.101c0 60.036-48.677 108.707-108.725 108.707-60.049 0-108.725-48.671-108.725-108.707 0-60.036 48.676-108.708 108.725-108.708 60.048 0 108.725 48.672 108.725 108.708z" stroke="#fff" stroke-width="20"/><path d="M482.701 188.852c0 59.705-48.408 108.108-108.125 108.108-59.718 0-108.126-48.403-108.126-108.108 0-59.704 48.408-108.107 108.126-108.107 59.717 0 108.125 48.403 108.125 108.107z" stroke="#fff" stroke-width="20"/><path d="M482.701 330.342c0 59.705-48.408 108.108-108.125 108.108-59.718 0-108.126-48.403-108.126-108.108 0-59.705 48.408-108.108 108.126-108.108 59.717 0 108.125 48.403 108.125 108.108z" stroke="#fff" stroke-width="20"/><path d="M363.976 393.892c0 59.657-48.629 108.108-108.725 108.108s-108.725-48.451-108.725-108.108c0-59.657 48.629-108.107 108.725-108.107s108.725 48.45 108.725 108.107z" stroke="#fff" stroke-width="20"/><path d="M246.45 330.342c0 59.657-48.629 108.108-108.725 108.108S29 389.999 29 330.342c0-59.657 48.629-108.108 108.725-108.108S246.45 270.685 246.45 330.342z" stroke="#fff" stroke-width="20"/><path d="M246.45 188.852c0 59.658-48.629 108.108-108.725 108.108S29 248.51 29 188.852c0-59.657 48.629-108.107 108.725-108.107s108.725 48.45 108.725 108.107z" stroke="#fff" stroke-width="20"/><path d="M715.141 343.68c24.746 0 37.12-9.173 37.12-27.52 0-7.467-1.92-13.333-5.76-17.6-3.627-4.267-10.454-8-20.48-11.2l-26.24-8.64c-31.36-10.24-47.04-30.827-47.04-61.76 0-17.92 5.546-32.64 16.64-44.16 11.306-11.733 28.906-17.6 52.8-17.6 10.026 0 19.946 1.173 29.76 3.52 9.813 2.133 20.266 5.653 31.36 10.56l-11.84 32.96c-10.24-4.053-18.987-6.933-26.24-8.64-7.04-1.92-14.294-2.88-21.76-2.88-9.814 0-17.6 1.813-23.36 5.44-5.547 3.413-8.32 9.707-8.32 18.88 0 6.827 1.92 12.48 5.76 16.96 4.053 4.267 10.666 7.893 19.84 10.88l26.24 8.64c15.786 5.333 27.626 13.12 35.52 23.36 8.106 10.027 12.16 23.36 12.16 40 0 19.2-6.08 34.773-18.24 46.72-12.16 11.733-31.254 17.6-57.28 17.6-10.24 0-20.907-1.173-32-3.52-10.88-2.56-22.827-6.827-35.84-12.8l11.84-32.96c11.946 5.12 22.08 8.747 30.4 10.88 8.533 1.92 16.853 2.88 24.96 2.88zm236.665 23.04c-11.094 4.48-21.547 7.68-31.36 9.6-9.814 1.92-19.094 2.88-27.84 2.88-24.107 0-42.347-6.827-54.72-20.48-12.374-13.653-18.56-31.787-18.56-54.4v-19.2c0-15.147 2.773-28.267 8.32-39.36 5.546-11.093 13.44-19.733 23.68-25.92 10.24-6.187 22.293-9.28 36.16-9.28 11.306 0 21.866 2.347 31.68 7.04 10.026 4.48 18.133 11.627 24.32 21.44 6.4 9.6 9.6 21.973 9.6 37.12 0 4.48-.32 9.28-.96 14.4-.64 4.907-1.707 10.133-3.2 15.68h-94.08c.426 13.227 3.733 23.147 9.92 29.76 6.186 6.613 16.106 9.92 29.76 9.92 7.253 0 14.72-.853 22.4-2.56 7.893-1.707 16-4.267 24.32-7.68l10.56 31.04zm-64.32-125.12c-9.814 0-17.494 3.2-23.04 9.6-5.334 6.187-8.427 15.147-9.28 26.88h61.44c.213-1.067.32-2.027.32-2.88v-2.88c0-10.24-2.88-17.92-8.64-23.04-5.76-5.12-12.694-7.68-20.8-7.68zM1092.44 376l-40-67.52c-6.4 6.4-13.12 12.8-20.16 19.2V376h-36.799V139.2h36.799v147.84c12.16-12.373 22.61-24.213 31.36-35.52 8.96-11.52 17.17-24.107 24.64-37.76h42.24c-7.04 12.8-14.72 24.96-23.04 36.48-8.32 11.52-17.49 23.147-27.52 34.88l56.96 90.88h-44.48zm111.11-192.96h-38.72v-38.08h38.72v38.08zm-.96 192.96h-36.8V213.76h36.8V376zm148.3-5.44c-5.54 2.56-11.94 4.587-19.2 6.08a96.02 96.02 0 0 1-22.08 2.56c-12.37 0-22.29-2.56-29.76-7.68-7.46-5.12-12.9-12.267-16.32-21.44-3.2-9.173-4.8-19.627-4.8-31.36v-72.96h-26.24v-32h26.24v-42.24h36.8v42.24h50.56v32h-50.56v72.96c0 9.813 1.82 16.64 5.44 20.48 3.84 3.627 9.28 5.44 16.32 5.44 3.42 0 7.04-.32 10.88-.96 4.06-.853 8.54-2.24 13.44-4.16l9.28 31.04zm152.47 7.04c-10.88 0-19.63-2.24-26.24-6.72-6.4-4.48-11.09-10.027-14.08-16.64-9.17 8.533-18.03 14.827-26.56 18.88-8.53 4.053-17.71 6.08-27.52 6.08-14.29 0-24.85-4.587-31.68-13.76-6.61-9.173-9.92-20.8-9.92-34.88 0-9.387 1.71-17.6 5.12-24.64 3.63-7.253 9.49-12.907 17.6-16.96 8.11-4.053 19.2-6.08 33.28-6.08 5.55 0 11.31.427 17.28 1.28 5.97.64 11.95 1.493 17.92 2.56v-18.88c0-8.96-2.45-15.04-7.36-18.24-4.91-3.413-11.52-5.12-19.84-5.12-6.4 0-13.44.853-21.12 2.56-7.47 1.707-15.57 4.373-24.32 8l-10.56-31.36c21.55-8.747 41.07-13.12 58.56-13.12 15.79 0 27.95 2.667 36.48 8 8.75 5.333 14.83 12.373 18.24 21.12 3.41 8.747 5.12 18.133 5.12 28.16v62.4c0 3.2.85 6.293 2.56 9.28 1.92 2.773 5.55 4.16 10.88 4.16h3.52v33.92h-7.36zm-100.48-47.68c0 5.76 1.28 10.347 3.84 13.76 2.56 3.2 6.29 4.8 11.2 4.8 4.91 0 10.45-1.28 16.64-3.84 6.19-2.56 14.19-8.533 24-17.92v-13.76c-11.09-1.92-21.97-2.88-32.64-2.88-8.32 0-14.29 1.707-17.92 5.12-3.41 3.413-5.12 8.32-5.12 14.72zm231.31-82.56c-10.03 0-19.63 1.6-28.8 4.8-8.96 2.987-17.6 7.893-25.92 14.72V376h-36.8V213.76h34.88v24.96c10.88-10.24 20.58-17.493 29.12-21.76 8.53-4.267 17.7-6.4 27.52-6.4v36.8zm69.03 16.32V376h-36.8V213.76h34.88v21.44c10.02-8.747 19.3-15.04 27.84-18.88 8.53-3.84 17.28-5.76 26.24-5.76 19.84 0 33.38 8.747 40.64 26.24 10.66-9.387 20.58-16.107 29.76-20.16 9.17-4.053 18.45-6.08 27.84-6.08 14.93 0 26.34 5.013 34.24 15.04 7.89 9.813 11.84 23.68 11.84 41.6V376h-36.8V271.68c0-17.92-6.83-26.88-20.48-26.88-5.34 0-11.2 1.28-17.6 3.84-6.4 2.56-14.19 7.573-23.36 15.04V376h-36.8V271.68c0-17.92-6.83-26.88-20.48-26.88-5.34 0-11.2 1.28-17.6 3.84-6.4 2.56-14.19 7.573-23.36 15.04zM2044.93 376v-21.44c-9.81 8.533-18.98 14.827-27.52 18.88-8.53 3.84-17.17 5.76-25.92 5.76-14.5 0-25.7-4.907-33.6-14.72-7.89-10.027-11.84-24-11.84-41.92v-108.8h36.8v104.32c0 17.92 6.62 26.88 19.84 26.88 5.34 0 11.1-1.28 17.28-3.84 6.4-2.56 14.08-7.467 23.04-14.72V213.76h36.8V376h-34.88z" fill="#fff"/></g><defs><clipPath id="a"><path fill="#fff" d="M0 0h2084v512H0z"/></clipPath></defs></svg>